<?xml version="1.0" encoding="utf-8"?>
<!-- Generator: Adobe Illustrator 18.1.1, SVG Export Plug-In . SVG Version: 6.00 Build 0)  -->
<svg version="1.1" id="Layer_1" xmlns="http://www.w3.org/2000/svg" xmlns:xlink="http://www.w3.org/1999/xlink" x="0px" y="0px"
	 viewBox="0 0 196.6 95.6" enable-background="new 0 0 196.6 95.6" xml:space="preserve">
<g>
	<g>
		<path fill="#5A5859" d="M80.6,24.4H82v-0.7c0-4.5-2.3-6-5.5-6c-2.5,0-4.3,1-5.2,1.5c-0.4,0.2-0.7,0.2-1-0.2l-0.2-0.2
			c-0.3-0.4-0.2-0.7,0.1-1c0.9-0.6,3.1-1.8,6.3-1.8c4.6,0,7.1,2.6,7.1,7.6V36c0,0.4-0.2,0.7-0.7,0.7h-0.3c-0.4,0-0.7-0.2-0.7-0.7v-2
			c0-1.1,0.2-1.8,0.2-1.8H82c0,0-1.8,5-7,5c-3.3,0-6.8-1.8-6.8-5.8C68.1,24.4,77,24.4,80.6,24.4z M75.1,35.5c4.4,0,6.9-4.6,6.9-8.5
			v-1.1h-1.3c-3.4,0-10.8,0-10.8,5.2C69.9,33.3,71.6,35.5,75.1,35.5z"/>
		<path fill="#5A5859" d="M90,42.3c0.9,0.4,2.5,1.1,5,1.1c4.1,0,7.5-2.1,7.5-6.9v-2.3c0-0.9,0.2-1.7,0.2-1.7h-0.1
			c-1.2,2.5-3.4,4.1-6.8,4.1c-5.2,0-8.9-4.1-8.9-10.5c0-6.2,3.4-10.1,8.8-10.1c5.4,0,6.8,3.9,6.8,3.9h0.1c0,0-0.1-0.3-0.1-0.8v-2
			c0-0.4,0.2-0.7,0.7-0.7h0.3c0.4,0,0.7,0.2,0.7,0.7v19.3c0,6.2-4.4,8.6-9.2,8.6c-2,0-3.9-0.4-5.7-1.2c-0.4-0.2-0.5-0.5-0.3-0.9
			l0.2-0.4C89.3,42.2,89.6,42.1,90,42.3z M102.4,26.3c0-6.6-3.1-8.7-6.8-8.7c-4.5,0-7,3.1-7,8.4c0,5.7,3,8.9,7.3,8.9
			C99.4,35,102.4,32.8,102.4,26.3z"/>
		<path fill="#5A5859" d="M117.2,16c5.2,0,8.2,3.8,8.2,9.6c0,0.4-0.3,0.7-0.7,0.7h-15.5c0,5.8,3.9,9.2,8.6,9.2
			c2.8,0,4.8-1.3,5.7-2.1c0.4-0.3,0.7-0.2,0.9,0.1l0.2,0.3c0.2,0.3,0.2,0.6-0.2,0.9c-1,0.8-3.4,2.4-6.7,2.4
			c-5.7,0-10.4-4.1-10.4-10.5C107.4,19.8,112.1,16,117.2,16z M123.7,24.7c-0.2-4.9-3.1-7.1-6.5-7.1c-3.7,0-7.1,2.4-7.9,7.1H123.7z"
			/>
		<path fill="#5A5859" d="M128.7,17.2c0-0.4,0.2-0.7,0.7-0.7h0.3c0.4,0,0.7,0.2,0.7,0.7V20c0,0.9-0.2,1.7-0.2,1.7h0.1
			c0.7-1.9,3.5-5.7,8.5-5.7c5.2,0,6.6,3.1,6.6,7.9V36c0,0.4-0.2,0.7-0.7,0.7h-0.3c-0.4,0-0.7-0.2-0.7-0.7V24.5c0-3.5-0.4-6.8-5-6.8
			c-4.6,0-8.5,3.8-8.5,8.9V36c0,0.4-0.2,0.7-0.7,0.7h-0.3c-0.4,0-0.7-0.2-0.7-0.7V17.2z"/>
		<path fill="#5A5859" d="M157.6,16c5.1,0,7,4.6,7,4.6h0.1c0,0-0.2-0.7-0.2-1.7V9.1c0-0.4,0.2-0.7,0.7-0.7h0.3
			c0.4,0,0.7,0.2,0.7,0.7V36c0,0.4-0.2,0.7-0.7,0.7h-0.3c-0.4,0-0.7-0.2-0.7-0.7v-1.9c0-0.9,0.2-1.5,0.2-1.5h-0.1
			c0,0-1.7,4.6-7.3,4.6c-5.4,0-8.7-4.3-8.7-10.6C148.6,20.2,152.4,16,157.6,16z M157.4,35.5c3.7,0,7.2-2.6,7.2-8.9
			c0-4.5-2.3-8.9-7-8.9c-3.9,0-7.2,3.3-7.2,8.9C150.4,32,153.3,35.5,157.4,35.5z"/>
		<path fill="#5A5859" d="M181.6,24.4h1.3v-0.7c0-4.5-2.3-6-5.5-6c-2.5,0-4.3,1-5.2,1.5c-0.4,0.2-0.7,0.2-1-0.2l-0.2-0.2
			c-0.3-0.4-0.2-0.7,0.1-1c0.9-0.6,3.1-1.8,6.3-1.8c4.6,0,7.1,2.6,7.1,7.6V36c0,0.4-0.2,0.7-0.7,0.7h-0.3c-0.4,0-0.7-0.2-0.7-0.7v-2
			c0-1.1,0.2-1.8,0.2-1.8H183c0,0-1.8,5-7,5c-3.3,0-6.8-1.8-6.8-5.8C169.1,24.4,178,24.4,181.6,24.4z M176.1,35.5
			c4.4,0,6.9-4.6,6.9-8.5v-1.1h-1.3c-3.4,0-10.8,0-10.8,5.2C170.9,33.3,172.6,35.5,176.1,35.5z"/>
		<path fill="#5A5859" d="M77.6,59.7c5.1,0,7,4.6,7,4.6h0.1c0,0-0.2-0.7-0.2-1.7v-9.8c0-0.4,0.2-0.7,0.7-0.7h0.3
			c0.4,0,0.7,0.2,0.7,0.7v26.8c0,0.4-0.2,0.7-0.7,0.7h-0.3c-0.4,0-0.7-0.2-0.7-0.7v-1.9c0-0.9,0.2-1.5,0.2-1.5h-0.1
			c0,0-1.7,4.6-7.3,4.6c-5.4,0-8.7-4.3-8.7-10.6C68.6,63.8,72.3,59.7,77.6,59.7z M77.4,79.1c3.7,0,7.2-2.6,7.2-8.9
			c0-4.5-2.3-8.9-7-8.9c-3.9,0-7.2,3.3-7.2,8.9C70.4,75.6,73.3,79.1,77.4,79.1z"/>
		<path fill="#5A5859" d="M90.8,54.3v-1.6c0-0.4,0.2-0.7,0.7-0.7h0.6c0.4,0,0.7,0.2,0.7,0.7v1.6c0,0.4-0.2,0.7-0.7,0.7h-0.6
			C91,55,90.8,54.8,90.8,54.3z M90.9,60.8c0-0.4,0.2-0.7,0.7-0.7h0.3c0.4,0,0.7,0.2,0.7,0.7v18.8c0,0.4-0.2,0.7-0.7,0.7h-0.3
			c-0.4,0-0.7-0.2-0.7-0.7V60.8z"/>
		<path fill="#5A5859" d="M99.2,85.9c0.9,0.4,2.5,1.1,5,1.1c4.1,0,7.5-2.1,7.5-6.9v-2.3c0-0.9,0.2-1.7,0.2-1.7h-0.1
			c-1.2,2.5-3.4,4.1-6.8,4.1c-5.2,0-8.9-4.1-8.9-10.5c0-6.2,3.4-10.1,8.8-10.1c5.4,0,6.8,3.9,6.8,3.9h0.1c0,0-0.1-0.3-0.1-0.8v-2
			c0-0.4,0.2-0.7,0.7-0.7h0.3c0.4,0,0.7,0.2,0.7,0.7v19.3c0,6.2-4.4,8.6-9.2,8.6c-2,0-3.9-0.4-5.7-1.2c-0.4-0.2-0.5-0.5-0.3-0.9
			l0.2-0.4C98.5,85.8,98.8,85.7,99.2,85.9z M111.7,70c0-6.6-3.1-8.7-6.8-8.7c-4.5,0-7,3.1-7,8.4c0,5.7,3,8.9,7.3,8.9
			C108.7,78.6,111.7,76.4,111.7,70z"/>
		<path fill="#5A5859" d="M118,54.3v-1.6c0-0.4,0.2-0.7,0.7-0.7h0.6c0.4,0,0.7,0.2,0.7,0.7v1.6c0,0.4-0.2,0.7-0.7,0.7h-0.6
			C118.2,55,118,54.8,118,54.3z M118.1,60.8c0-0.4,0.2-0.7,0.7-0.7h0.3c0.4,0,0.7,0.2,0.7,0.7v18.8c0,0.4-0.2,0.7-0.7,0.7h-0.3
			c-0.4,0-0.7-0.2-0.7-0.7V60.8z"/>
		<path fill="#5A5859" d="M125.2,61.8h-2c-0.4,0-0.7-0.2-0.7-0.7v-0.2c0-0.4,0.2-0.7,0.7-0.7h2v-5c0-0.4,0.2-0.7,0.7-0.7h0.3
			c0.4,0,0.7,0.2,0.7,0.7v5h4.6c0.4,0,0.7,0.2,0.7,0.7v0.2c0,0.4-0.2,0.7-0.7,0.7h-4.6v11.1c0,5.4,3.3,5.9,4.9,6
			c0.6,0,0.8,0.2,0.8,0.7v0.2c0,0.4-0.2,0.7-0.7,0.7c-4.8,0-6.7-3-6.7-7.4V61.8z"/>
		<path fill="#5A5859" d="M145.3,68h1.3v-0.7c0-4.5-2.3-6-5.5-6c-2.5,0-4.3,1-5.2,1.5c-0.4,0.2-0.7,0.2-1-0.2l-0.2-0.2
			c-0.3-0.4-0.2-0.7,0.1-1c0.9-0.6,3.1-1.8,6.3-1.8c4.6,0,7.1,2.6,7.1,7.6v12.3c0,0.4-0.2,0.7-0.7,0.7h-0.3c-0.4,0-0.7-0.2-0.7-0.7
			v-2c0-1.1,0.2-1.8,0.2-1.8h-0.1c0,0-1.8,5-7,5c-3.3,0-6.8-1.8-6.8-5.8C132.9,68.1,141.8,68,145.3,68z M139.8,79.2
			c4.4,0,6.9-4.6,6.9-8.5v-1.1h-1.3c-3.4,0-10.8,0-10.8,5.2C134.6,76.9,136.4,79.2,139.8,79.2z"/>
		<path fill="#5A5859" d="M152.9,52.8c0-0.4,0.2-0.7,0.7-0.7h0.3c0.4,0,0.7,0.2,0.7,0.7v22.9c0,2.8,1.4,3.1,2.3,3.2
			c0.4,0,0.6,0.2,0.6,0.6v0.2c0,0.4-0.2,0.7-0.7,0.7c-1.2,0-3.9-0.4-3.9-4.2V52.8z"/>
	</g>
	
		<rect x="15.8" y="36.8" transform="matrix(0.7071 -0.7071 0.7071 0.7071 -25.2256 31.1677)" fill="#F22E52" width="18.5" height="18.5"/>
	<polygon fill="#2A558C" points="38.1,72.1 51.1,59.1 64.2,46 51.1,33 38.1,19.9 25,6.9 12,19.9 25,33 38.1,46 25,59.1 12,72.1 
		25,85.2 	"/>
</g>
</svg>
